<?xml version="1.0" encoding="UTF-8"?>
<svg width="25px" height="24px" viewBox="0 0 25 24" version="1.1" xmlns="http://www.w3.org/2000/svg" xmlns:xlink="http://www.w3.org/1999/xlink">
    <!-- Generator: Sketch 48.2 (47327) - http://www.bohemiancoding.com/sketch -->
    <title>Fill 4</title>
    <desc>Created with Sketch.</desc>
    <defs></defs>
    <g id="Desktop-HD" stroke="none" stroke-width="1" fill="none" fill-rule="evenodd" transform="translate(-853.000000, -1273.000000)">
        <path d="M865.302554,1273 C858.50926,1273 853,1278.5085 853,1285.30406 C853,1290.74006 856.52505,1295.35125 861.414197,1296.9782 C862.029778,1297.09149 862.254106,1296.71157 862.254106,1296.38528 C862.254106,1296.09372 862.243532,1295.31953 862.23749,1294.29306 C858.815162,1295.03628 858.093082,1292.64345 858.093082,1292.64345 C857.533394,1291.22195 856.726719,1290.84354 856.726719,1290.84354 C855.60961,1290.08067 856.811314,1290.09578 856.811314,1290.09578 C858.046252,1290.18264 858.695822,1291.36395 858.695822,1291.36395 C859.793294,1293.24392 861.575835,1292.70085 862.276766,1292.38589 C862.388552,1291.5913 862.70654,1291.04898 863.05776,1290.74157 C860.32579,1290.43114 857.453331,1289.37521 857.453331,1284.66054 C857.453331,1283.31759 857.932955,1282.21861 858.719993,1281.35906 C858.5931,1281.04787 858.170879,1279.79631 858.840843,1278.1029 C858.840843,1278.1029 859.873357,1277.77207 862.223894,1279.36428 C863.205047,1279.09085 864.257954,1278.9549 865.304064,1278.94961 C866.349419,1278.9549 867.401571,1279.09085 868.384234,1279.36428 C870.733261,1277.77207 871.764264,1278.1029 871.764264,1278.1029 C872.435738,1279.79631 872.013518,1281.04787 871.887381,1281.35906 C872.675928,1282.21861 873.151776,1283.31759 873.151776,1284.66054 C873.151776,1289.38729 870.274785,1290.42736 867.534506,1290.73175 C867.97561,1291.11167 868.369128,1291.86246 868.369128,1293.01053 C868.369128,1294.65485 868.354022,1295.98194 868.354022,1296.38528 C868.354022,1296.71459 868.576084,1297.09754 869.199973,1296.97744 C874.085344,1295.34672 877.607373,1290.73855 877.607373,1285.30406 C877.607373,1278.5085 872.098113,1273 865.302554,1273" id="Fill-4" fill="#161514"></path>
    </g>
</svg>