<?xml version="1.0" encoding="UTF-8"?>
<svg width="24px" height="24px" viewBox="0 0 24 24" version="1.1" xmlns="http://www.w3.org/2000/svg" xmlns:xlink="http://www.w3.org/1999/xlink">
    <!-- Generator: Sketch 48.2 (47327) - http://www.bohemiancoding.com/sketch -->
    <title>Fill 51</title>
    <desc>Created with Sketch.</desc>
    <defs></defs>
    <g id="Mobile" stroke="none" stroke-width="1" fill="none" fill-rule="evenodd" transform="translate(-148.000000, -1022.000000)">
        <path d="M159.998895,1022 C153.373277,1022 148,1027.5085 148,1034.30406 C148,1039.74006 151.438043,1044.35125 156.206513,1045.9782 C156.8069,1046.09149 157.025691,1045.71157 157.025691,1045.38528 C157.025691,1045.09297 157.015378,1044.31953 157.009485,1043.29306 C153.671629,1044.03628 152.967372,1041.64345 152.967372,1041.64345 C152.421499,1040.22195 151.634734,1039.84354 151.634734,1039.84354 C150.545198,1039.08067 151.717241,1039.09578 151.717241,1039.09578 C152.921698,1039.18264 153.555235,1040.36395 153.555235,1040.36395 C154.625618,1042.24392 156.364161,1041.70085 157.047792,1041.38589 C157.156819,1040.5913 157.466957,1040.04898 157.809509,1039.74157 C155.144971,1039.43114 152.343411,1038.37521 152.343411,1033.66054 C152.343411,1032.31759 152.811197,1031.21861 153.578808,1030.35906 C153.455048,1030.04787 153.043249,1028.79631 153.696676,1027.1029 C153.696676,1027.1029 154.703705,1026.77207 156.996225,1028.36428 C157.95316,1028.09085 158.980079,1027.9549 160.000368,1027.94961 C161.019921,1027.9549 162.046103,1028.09085 163.004512,1028.36428 C165.295558,1026.77207 166.301114,1027.1029 166.301114,1027.1029 C166.956015,1028.79631 166.544216,1030.04787 166.421192,1030.35906 C167.190276,1031.21861 167.654379,1032.31759 167.654379,1033.66054 C167.654379,1038.38729 164.848399,1039.42736 162.175757,1039.73175 C162.605973,1040.11167 162.989779,1040.86246 162.989779,1042.00978 C162.989779,1043.65485 162.975045,1044.98194 162.975045,1045.38528 C162.975045,1045.71459 163.191627,1046.09754 163.800117,1045.97744 C168.564904,1044.34672 172,1039.73855 172,1034.30406 C172,1027.5085 166.626723,1022 159.998895,1022" id="Fill-51" fill="#FFFFFE"></path>
    </g>
</svg>