<?xml version="1.0" encoding="UTF-8"?>
<svg width="24px" height="24px" viewBox="0 0 24 24" version="1.1" xmlns="http://www.w3.org/2000/svg" xmlns:xlink="http://www.w3.org/1999/xlink">
    <!-- Generator: Sketch 53 (72520) - https://sketchapp.com -->
    <title>Shape</title>
    <desc>Created with Sketch.</desc>
    <g id="Page-1" stroke="none" stroke-width="1" fill="none" fill-rule="evenodd">
        <g id="Mobile" transform="translate(-148.000000, -1022.000000)" fill="#FFFFFE" fill-rule="nonzero">
            <path d="M160.145021,1042.71966 C159.017526,1042.71966 158.041196,1042.4623 157.216,1041.94757 C156.390804,1041.43285 155.757619,1040.7343 155.316426,1039.85191 C154.875232,1038.96953 154.552512,1038.03405 154.348255,1037.04545 C154.143999,1036.05685 154.041872,1034.99064 154.041872,1033.84681 C154.041872,1032.9971 154.094978,1032.18417 154.201191,1031.408 C154.307405,1030.63183 154.503488,1029.84341 154.789447,1029.04272 C155.075406,1028.24204 155.443062,1027.54758 155.892426,1026.95932 C156.341789,1026.37106 156.930039,1025.89311 157.657191,1025.52545 C158.384344,1025.15779 159.213612,1024.97396 160.145021,1024.97396 C161.272516,1024.97396 162.248847,1025.23132 163.074043,1025.74604 C163.899238,1026.26077 164.532423,1026.95931 164.973617,1027.8417 C165.414811,1028.72409 165.737531,1029.65957 165.941787,1030.64817 C166.146044,1031.63677 166.24817,1032.70297 166.24817,1033.84681 C166.24817,1034.69651 166.195064,1035.50944 166.088851,1036.28562 C165.982638,1037.06179 165.78247,1037.85021 165.48834,1038.65089 C165.194211,1039.45158 164.826555,1040.14604 164.385362,1040.7343 C163.944168,1041.32256 163.360004,1041.80051 162.632851,1042.16817 C161.905698,1042.53583 161.07643,1042.71966 160.145021,1042.71966 Z M162.245196,1035.94698 C162.828581,1035.3636 163.120269,1034.66355 163.120269,1033.84681 C163.120269,1033.03007 162.835873,1032.33002 162.267073,1031.74663 C161.698273,1031.16325 160.990929,1030.87156 160.145021,1030.87156 C159.299113,1030.87156 158.59177,1031.16325 158.02297,1031.74663 C157.45417,1032.33002 157.169774,1033.03007 157.169774,1033.84681 C157.169774,1034.66355 157.45417,1035.3636 158.02297,1035.94698 C158.59177,1036.53037 159.299113,1036.82206 160.145021,1036.82206 C160.990929,1036.82206 161.69098,1036.53037 162.245196,1035.94698 Z M160,1046 C166.627417,1046 172,1040.62742 172,1034 C172,1027.37258 166.627417,1022 160,1022 C153.372583,1022 148,1027.37258 148,1034 C148,1040.62742 153.372583,1046 160,1046 Z" id="Shape"></path>
        </g>
    </g>
</svg>