<?xml version="1.0" encoding="UTF-8"?>
<svg width="25px" height="24px" viewBox="0 0 25 24" version="1.1" xmlns="http://www.w3.org/2000/svg" xmlns:xlink="http://www.w3.org/1999/xlink">
    <!-- Generator: Sketch 53 (72520) - https://sketchapp.com -->
    <title>Shape</title>
    <desc>Created with Sketch.</desc>
    <g id="Page-1" stroke="none" stroke-width="1" fill="none" fill-rule="evenodd">
        <g id="contact-me-menu-" transform="translate(-712.000000, -1280.000000)" fill="#000000" fill-rule="nonzero">
            <g id="contact-options" transform="translate(658.500000, 1280.000000)">
                <path d="M65.7927181,20.7196596 C64.6652231,20.7196596 63.6888924,20.4623004 62.8636968,19.9475745 C62.0385012,19.4328485 61.405316,18.7343023 60.9641223,17.8519149 C60.5229286,16.9695275 60.2002084,16.0340475 59.9959521,15.0454468 C59.7916958,14.0568461 59.6895691,12.990644 59.6895691,11.8468085 C59.6895691,10.9971021 59.742675,10.1841741 59.8488883,9.408 C59.9551016,8.63182591 60.1511847,7.84340826 60.4371436,7.0427234 C60.7231025,6.24203855 61.0907584,5.54757741 61.5401223,4.95931915 C61.9894863,4.37106089 62.5777357,3.89310822 63.3048883,3.52544681 C64.0320409,3.1577854 64.8613092,2.97395745 65.7927181,2.97395745 C66.9202131,2.97395745 67.8965437,3.23131658 68.7217394,3.74604255 C69.546935,4.26076853 70.1801201,4.95931474 70.6213138,5.84170213 C71.0625075,6.72408952 71.3852277,7.65956953 71.589484,8.64817021 C71.7937404,9.6367709 71.895867,10.702973 71.895867,11.8468085 C71.895867,12.6965149 71.8427612,13.5094429 71.7365479,14.285617 C71.6303346,15.0617911 71.4301664,15.8502088 71.1360372,16.6508936 C70.8419081,17.4515785 70.4742522,18.1460396 70.0330585,18.7342979 C69.5918648,19.3225561 69.0077004,19.8005088 68.2805479,20.1681702 C67.5533953,20.5358316 66.724127,20.7196596 65.7927181,20.7196596 Z M67.8928928,13.9469832 C68.4762775,13.3635984 68.7679656,12.6635472 68.7679656,11.8468085 C68.7679656,11.0300698 68.4835697,10.3300186 67.9147696,9.74663382 C67.3459694,9.16324904 66.638626,8.87156103 65.7927181,8.87156103 C64.9468102,8.87156103 64.2394667,9.16324904 63.6706666,9.74663382 C63.1018664,10.3300186 62.8174706,11.0300698 62.8174706,11.8468085 C62.8174706,12.6635472 63.1018664,13.3635984 63.6706666,13.9469832 C64.2394667,14.530368 64.9468102,14.822056 65.7927181,14.822056 C66.638626,14.822056 67.3386772,14.530368 67.8928928,13.9469832 Z M65.6476968,24 C72.2751138,24 77.6476968,18.627417 77.6476968,12 C77.6476968,5.372583 72.2751138,0 65.6476968,0 C59.0202798,0 53.6476968,5.372583 53.6476968,12 C53.6476968,18.627417 59.0202798,24 65.6476968,24 Z" id="Shape"></path>
            </g>
        </g>
    </g>
</svg>